SplineFontDB: 3.0
FontName: Figurato
FullName: Figurato
FamilyName: Figurato
Weight: Standard
Copyright: Copyright 2018 Florian Kretlow
Version: 0.2.3
ItalicAngle: 0
UnderlinePosition: -100
UnderlineWidth: 50
Ascent: 350
Descent: 150
InvalidEm: 0
sfntRevision: 0x00010000
LayerCount: 4
Layer: 0 0 "Back" 1
Layer: 1 0 "Zeichenebene" 0
Layer: 2 0 "Struktur" 0
Layer: 3 0 "Struktur 2" 0
XUID: [1021 864 31587 12318]
FSType: 0
OS2Version: 0
OS2_WeightWidthSlopeOnly: 0
OS2_UseTypoMetrics: 1
CreationTime: 1324930714
ModificationTime: 1532814671
PfmFamily: 17
TTFWeight: 400
TTFWidth: 5
LineGap: 90
VLineGap: 0
OS2TypoAscent: 0
OS2TypoAOffset: 1
OS2TypoDescent: 0
OS2TypoDOffset: 1
OS2TypoLinegap: 90
OS2WinAscent: 0
OS2WinAOffset: 1
OS2WinDescent: 0
OS2WinDOffset: 1
HheadAscent: 0
HheadAOffset: 1
HheadDescent: 0
HheadDOffset: 1
OS2Vendor: 'PfEd'
Lookup: 4 0 1 "'liga' italic figures" { "'liga' italic figures-2"  "'liga' italic figures-1"  } ['liga' ('DFLT' <'dflt' > 'latn' <'dflt' > ) ]
Lookup: 4 0 0 "BaseLigatures" { "BaseLigatures-1"  } ['ccmp' ('DFLT' <'dflt' > 'latn' <'dflt' > ) ]
Lookup: 6 0 0 "'calt' nolig" { "'calt' nolig-1"  } ['calt' ('DFLT' <'dflt' > 'latn' <'dflt' > ) ]
Lookup: 6 0 0 "'calt' L R S" { "'calt' L R S conditions"  } ['calt' ('DFLT' <'dflt' > 'latn' <'dflt' > ) ]
Lookup: 6 0 0 "'calt' L cascade" { "'calt' L cascade-1"  } ['calt' ('DFLT' <'dflt' > 'latn' <'dflt' > ) ]
Lookup: 6 0 0 "'calt' R acc collision avoidance" { "'calt' R acc collision avoidance-1"  } ['calt' ('DFLT' <'dflt' > 'latn' <'dflt' > ) ]
Lookup: 6 0 0 "'calt' L acc collision avoidance" { "'calt' L acc collision avoidance-1"  } ['calt' ('DFLT' <'dflt' > 'latn' <'dflt' > ) ]
Lookup: 6 0 0 "'calt' parentheses shift" { "parens substitiution conditions-1"  } ['calt' ('DFLT' <'dflt' > 'latn' <'dflt' > ) ]
Lookup: 1 0 0 "space_parens substitution" { "space_parens substitution-1"  } ['    ' ('DFLT' <'dflt' > 'latn' <'dflt' > ) ]
Lookup: 1 0 0 "L substitution" { "L substitution-1" ("L") } []

StartChar: zero
Encoding: 48 48 0
Width: 0
VWidth: 0
Flags: HMW
AnchorPoint: "chain" 227.5 365 basemark 0
AnchorPoint: "chain" 227.5 0 mark 0
LayerCount: 4
Back
SplineSet
2 140 m 4
 2 221 41 285 103 285 c 4
 165 285 204 221 204 140 c 4
 204 59 165 -4 103 -4 c 4
 41 -4 2 59 2 140 c 4
103 263 m 7
 64 263 50 211 50 150 c 6
 50 128 l 6
 50 67 64 18 103 18 c 7
 142 18 155 67 155 128 c 6
 155 150 l 6
 155 211 142 263 103 263 c 7
EndSplineSet
Fore
SplineSet
0 140 m 0
 0 221 44 285 103 285 c 0
 162 285 206 221 206 140 c 0
 206 59 162 -4 103 -4 c 0
 44 -4 0 59 0 140 c 0
103 263 m 3
 67 263 53 211 53 150 c 2
 53 128 l 2
 53 67 67 18 103 18 c 3
 139 18 152 67 152 128 c 2
 152 150 l 2
 152 211 139 263 103 263 c 3
EndSplineSet
Validated: 1048577
Substitution2: "L substitution-1" zero.L
EndChar

StartChar: one
Encoding: 49 49 1
Width: 0
VWidth: 0
Flags: HMW
AnchorPoint: "chain" 209 0 mark 0
AnchorPoint: "chain" 209 365 basemark 0
LayerCount: 4
Back
SplineSet
120 56 m 6
 120 30 138 21 156 21 c 6
 169 21 l 21
 169 0 l 13
 21 0 l 21
 21 21 l 13
 39 21 l 6
 57 21 80 32 80 57 c 6
 80 212 l 6
 80 220 75 223 69 223 c 4
 66 223 63 223 60 221 c 6
 22 201 l 5
 10 216 l 13
 90 281 l 21
 120 281 l 13
 120 56 l 6
EndSplineSet
Fore
SplineSet
123 56 m 2
 123 30 138 21 156 21 c 2
 169 21 l 17
 169 0 l 9
 21 0 l 17
 21 21 l 9
 39 21 l 2
 57 21 77 32 77 57 c 2
 77 219 l 2
 77 226 74 230 67 230 c 0
 64 230 60 229 54 227 c 2
 24 215 l 1
 14 232 l 9
 88 281 l 17
 123 281 l 9
 123 56 l 2
EndSplineSet
Validated: 1048577
Substitution2: "L substitution-1" one.L
EndChar

StartChar: two
Encoding: 50 50 2
Width: 0
VWidth: 0
Flags: HMW
AnchorPoint: "chain" 228 365 basemark 0
AnchorPoint: "chain" 228 0 mark 0
LayerCount: 4
Back
SplineSet
206 66 m 5
 204 28 188 -4 148 -4 c 4
 112 -4 88 36 58 36 c 4
 39 36 30 24 20 0 c 5
 0 0 l 5
 4 42 46 95 82 118 c 4
 134 154 158 179 158 209 c 4
 158 246 132 263 102 263 c 4
 74 263 54 248 54 235 c 4
 54 224 68 223 68 202 c 4
 68 184 58 175 42 175 c 4
 24 175 10 188 10 208 c 4
 10 240 46 285 108 285 c 4
 162 285 206 253 206 207 c 4
 206 159 166 140 128 119 c 4
 118 113 82 93 58 62 c 5
 63 63.8571428571 67.7142857143 64.6530612245 72.2274052478 64.6530612245 c 4
 99.306122449 64.6530612245 119.142857143 36 150 36 c 4
 172 36 180 50 188 71 c 5
 206 66 l 5
EndSplineSet
Fore
SplineSet
206 79 m 1
 206 36 188 -4 148 -4 c 0
 112 -4 84 28 54 28 c 0
 35 28 27 18 20 0 c 1
 0 0 l 1
 4 42 46 95 82 118 c 0
 134 154 149 179 149 209 c 0
 149 246 130 263 102 263 c 0
 74 263 57 250 57 236 c 0
 57 224 72 220 72 198 c 0
 72 183 61 171 43 171 c 0
 23 171 10 185 10 207 c 0
 10 240 46 285 108 285 c 0
 162 285 206 253 206 207 c 0
 206 159 166 140 128 119 c 0
 118 113 76 90 53 55 c 1
 98 55 107 45 144 45 c 0
 169 45 181 57 188 82 c 1
 206 79 l 1
EndSplineSet
Validated: 1048577
Layer: 2
SplineSet
206 75 m 5
 206 37 188 -4 148 -4 c 4
 112 -4 85 30 55 30 c 4
 36 30 27 18 20 0 c 5
 0 0 l 5
 4 42 46 95 82 118 c 4
 134 154 158 179 158 209 c 4
 158 246 132 263 102 263 c 4
 74 263 54 248 54 235 c 4
 54 224 68 223 68 202 c 4
 68 184 58 175 42 175 c 4
 24 175 10 188 10 208 c 4
 10 240 46 285 108 285 c 4
 162 285 206 253 206 207 c 4
 206 159 166 140 128 119 c 4
 118 113 76 90 53 55 c 5
 103 55 109 41 146 41 c 4
 171 41 182 56 188 78 c 5
 206 75 l 5
EndSplineSet
Substitution2: "L substitution-1" two.L
EndChar

StartChar: three
Encoding: 51 51 3
Width: 0
VWidth: 0
Flags: HMW
AnchorPoint: "chain" 225.5 0 mark 0
AnchorPoint: "chain" 225.5 365 basemark 0
LayerCount: 4
Back
SplineSet
28 98 m 0
 44 98 56 86 56 70 c 0
 56 57 48 49 48 41 c 0
 48 29 70 17 94 17 c 0
 126 17 156 37 156 75 c 4
 156 110 126 133 68 133 c 2
 54 133 l 1
 54 154 l 1
 68 154 l 2
 120 154 154 178 154 214 c 4
 154 246 128 265 94 265 c 0
 68 265 54 253 54 244 c 0
 54 236 66 232 66 212 c 0
 66 199 54 188 38 188 c 0
 24 188 12 200 12 220 c 0
 12 251 48 285 102 285 c 0
 152 285 198 257 198 215 c 0
 198 185 176 161 148 151 c 0
 144 150 140 150 140 146 c 0
 140 143 142 143 146 141 c 0
 178 129 202 105 202 74 c 0
 202 36 166 -4 100 -4 c 0
 40 -4 0 34 0 66 c 0
 0 86 12 98 28 98 c 0
EndSplineSet
Fore
SplineSet
29 102 m 0
 47 102 60 89 60 71 c 0
 60 57 51 48 51 40 c 0
 51 27 70 17 94 17 c 0
 126 17 148 37 148 75 c 0
 148 110 126 133 68 133 c 2
 64 133 l 1
 64 154 l 1
 68 154 l 2
 120 154 146 178 146 214 c 0
 146 246 128 265 94 265 c 0
 68 265 57 254 57 245 c 0
 57 237 70 233 70 211 c 0
 70 197 57 184 39 184 c 0
 24 184 12 197 12 219 c 0
 12 251 48 285 102 285 c 0
 152 285 198 257 198 215 c 0
 198 185 176 161 148 151 c 0
 144 150 140 150 140 146 c 0
 140 143 142 143 146 141 c 0
 178 129 202 105 202 74 c 0
 202 36 166 -4 100 -4 c 0
 40 -4 -1 34 -1 67 c 0
 -1 89 11 102 29 102 c 0
EndSplineSet
Validated: 1048577
Substitution2: "L substitution-1" three.L
EndChar

StartChar: four
Encoding: 52 52 4
Width: 0
VWidth: 0
Flags: HMW
AnchorPoint: "chain" 233.5 0 mark 0
AnchorPoint: "chain" 233.5 365 basemark 0
LayerCount: 4
Back
SplineSet
172 83 m 5
 172 48 l 6
 172 29 192 20 206 20 c 5
 206 0 l 5
 80 0 l 5
 80 20 l 5
 90 20 l 6
 104 20 126 27 126 48 c 6
 126 83 l 5
 0 83 l 5
 0 103 l 5
 35 161 57 215 74 281 c 5
 145 281 l 5
 113 216 81 182 30 106 c 5
 126 106 l 5
 126 162 l 5
 172 211 l 5
 172 106 l 5
 218 106 l 5
 218 83 l 5
 172 83 l 5
EndSplineSet
Fore
SplineSet
174 83 m 1
 174 48 l 2
 174 29 194 20 208 20 c 1
 208 0 l 1
 82 0 l 1
 82 20 l 1
 92 20 l 2
 106 20 128 27 128 48 c 2
 128 83 l 1
 -3 83 l 1
 -3 103 l 1
 32 161 50 215 67 281 c 1
 138 281 l 1
 106 216 78 182 27 106 c 1
 128 106 l 1
 128 162 l 1
 174 211 l 1
 174 106 l 1
 220 106 l 1
 220 83 l 1
 174 83 l 1
EndSplineSet
Validated: 1048577
Substitution2: "L substitution-1" four.L
EndChar

StartChar: five
Encoding: 53 53 5
Width: 0
VWidth: 0
Flags: HMW
AnchorPoint: "chain" 224.5 0 mark 0
AnchorPoint: "chain" 224.5 365 basemark 0
LayerCount: 4
Back
SplineSet
95 -4 m 4
 37 -4 0 34 0 64 c 4
 0 86 14 99 33 99 c 4
 52 99 63 85 63 67 c 4
 63 47 54 48 54 36 c 4
 54 28 63 18 87 18 c 4
 123 18 150 43 150 93 c 4
 150 138 125 155 89 156 c 4
 66 156 48 149 34 136 c 5
 21 143 l 13
 23 281 l 5
 52 278 75 276 99 276 c 4
 122 276 145 277 173 281 c 5
 178 274 l 5
 161 246 138 227 92 227 c 7
 76 227 62 229 44 231 c 13
 43 168 l 21
 58 174 69 180 98 180 c 4
 149 180 200 150 200 92 c 4
 200 34 154 -4 95 -4 c 4
EndSplineSet
Fore
SplineSet
95 -4 m 4
 37 -4 -1 35 -1 66 c 4
 -1 89 13 102 33 102 c 4
 53 102 64 88 64 69 c 4
 64 48 54 49 54 37 c 4
 54 29 63 18 87 18 c 4
 123 18 147 43 147 93 c 4
 147 138 125 155 89 156 c 0
 66 156 48 149 34 136 c 1
 21 143 l 9
 23 281 l 1
 52 278 75 276 99 276 c 0
 122 276 145 277 173 281 c 1
 178 274 l 1
 161 246 138 227 92 227 c 3
 76 227 62 229 44 231 c 9
 43 168 l 17
 58 174 69 180 98 180 c 0
 149 180 200 150 200 92 c 4
 200 34 154 -4 95 -4 c 4
EndSplineSet
Validated: 1048577
Substitution2: "L substitution-1" five.L
EndChar

StartChar: six
Encoding: 54 54 6
Width: 0
VWidth: 0
Flags: HMW
AnchorPoint: "chain" 223.5 0 mark 0
AnchorPoint: "chain" 223.5 365 basemark 0
LayerCount: 4
Back
SplineSet
157 198 m 4
 139 198 127 211 127 228 c 4
 127 236 130 243 130 251 c 4
 130 258 123 264 111 264 c 7
 56 264 48 198 48 138 c 5
 62 155 84 168 112 168 c 4
 167 168 198 130 198 86 c 4
 198 34 161 -4 106 -4 c 4
 31 -4 0 66 0 138 c 4
 0 233 55 285 110 285 c 7
 159 285 187 258 187 231 c 4
 187 213 176 198 157 198 c 4
106 145 m 4
 74 145 53 118 53 80 c 7
 53 41 70 18 100 18 c 4
 134 18 152 47 152 85 c 4
 152 121 137 145 106 145 c 4
EndSplineSet
Fore
SplineSet
157 196 m 0
 138 196 126 209 126 227 c 0
 126 235 129 243 129 251 c 0
 129 258 123 264 111 264 c 3
 56 264 48 198 48 138 c 1
 62 155 84 168 112 168 c 0
 167 168 203 130 203 86 c 0
 203 34 161 -4 106 -4 c 0
 31 -4 0 66 0 138 c 0
 0 233 55 285 110 285 c 3
 159 285 188 258 188 230 c 0
 188 211 177 196 157 196 c 0
106 145 m 0
 74 145 53 118 53 80 c 3
 53 41 70 18 100 18 c 0
 134 18 152 47 152 85 c 0
 152 121 137 145 106 145 c 0
EndSplineSet
Validated: 1048577
Substitution2: "L substitution-1" six.L
EndChar

StartChar: seven
Encoding: 55 55 7
Width: 0
VWidth: 0
Flags: HMW
AnchorPoint: "chain" 216.5 0 mark 0
AnchorPoint: "chain" 216.5 365 basemark 0
LayerCount: 4
Back
SplineSet
24 281 m 5
 24 274 27 267 35 267 c 7
 47 267 52 285 78 285 c 4
 105 285 134 264 154 264 c 4
 167 264 177 268 182 281 c 5
 204 281 l 5
 169 189 118 125 111 35 c 4
 109 8 94 -3 79 -3 c 4
 64 -3 49 9 49 30 c 4
 49 89 116 149 159 231 c 5
 154 228 148 224 138 224 c 7
 117 224 84 242 62 242 c 7
 37 242 23 230 23 184 c 5
 4 184 l 5
 4 281 l 5
 24 281 l 5
EndSplineSet
Fore
SplineSet
24 281 m 5
 24 269 24 263 31 263 c 7
 40 263 51 285 80 285 c 4
 115 285 120 258 144 258 c 4
 158 258 168 268 172 281 c 5
 194 281 l 5
 174 188 118 125 111 35 c 4
 109 8 94 -3 79 -3 c 4
 64 -3 49 9 49 30 c 4
 49 85 108 142 153 219 c 5
 131 222 81 238 60 238 c 7
 45 238 24 234 17 174 c 5
 -2 174 l 5
 4 281 l 5
 24 281 l 5
EndSplineSet
Validated: 1048577
Substitution2: "L substitution-1" seven.L
EndChar

StartChar: eight
Encoding: 56 56 8
Width: 0
VWidth: 1610
Flags: HMW
AnchorPoint: "chain" 222.5 0 mark 0
AnchorPoint: "chain" 222.5 365 basemark 0
LayerCount: 4
Back
SplineSet
44 223 m 4xd8
 44 192 81 174 116 158 c 5
 146 173 156 196 156 214 c 4
 156 241 134 261 100 261 c 4
 69 261 44 247 44 223 c 4xd8
160 63 m 4xe4
 160 100 113 115 81 129 c 5
 54 122 30 99 30 72 c 4
 30 45 56 21 101 21 c 4
 136 21 160 41 160 63 c 4xe4
55 143 m 5
 35 155 8 178 8 210 c 4
 8 248 44 285 100 285 c 4
 153 285 187 251 187 212 c 4xd8
 187 186 170 165 142 147 c 5
 169 131 196 109 196 77 c 4
 196 27 155 -4 101 -4 c 4
 41 -4 0 28 0 70 c 4
 0 101 25 129 55 143 c 5
EndSplineSet
Fore
SplineSet
45 225 m 0xd8
 45 195 84 176 119 160 c 1
 147 175 156 196 156 214 c 0
 156 241 134 261 100 261 c 0
 69 261 45 247 45 225 c 0xd8
159 61 m 0xe4
 159 96 109 113 77 127 c 1
 52 120 30 99 30 72 c 0
 30 45 56 21 101 21 c 0
 136 21 159 41 159 61 c 0xe4
51 141 m 1
 31 153 8 174 8 208 c 0
 8 249 44 285 100 285 c 0
 153 285 187 251 187 212 c 0xd8
 187 186 171 167 145 149 c 1
 172 133 196 113 196 79 c 0
 196 27 155 -4 101 -4 c 0
 41 -4 0 28 0 70 c 0
 0 101 23 127 51 141 c 1
EndSplineSet
Validated: 1048577
Substitution2: "L substitution-1" eight.L
EndChar

StartChar: nine
Encoding: 57 57 9
Width: 0
VWidth: 0
Flags: HMW
AnchorPoint: "chain" 223.5 0 mark 0
AnchorPoint: "chain" 223.5 365 basemark 0
LayerCount: 4
Back
SplineSet
2 45 m 4
 2 63 12 76 32 76 c 4
 48 76 60 67 61 49 c 4
 62 29 64 19 82 19 c 7
 142 19 149 110 150 142 c 5
 134 126 114 113 86 113 c 4
 31 113 0 151 0 200 c 4
 0 245 37 285 92 285 c 4
 165 285 198 221 198 153 c 4
 198 58 138 -4 78 -4 c 7
 28 -4 2 20 2 45 c 4
92 136 m 4
 124 136 146 161 146 201 c 7
 146 240 129 263 98 263 c 4
 63 263 46 234 46 201 c 4
 46 160 61 136 92 136 c 4
EndSplineSet
Fore
SplineSet
1 46 m 0
 1 65 11 78 32 78 c 0
 48 78 61 69 62 50 c 0
 63 29 64 19 82 19 c 3
 142 19 149 110 150 142 c 1
 134 126 114 113 86 113 c 0
 31 113 -5 151 -5 200 c 0
 -5 245 35 285 90 285 c 0
 163 285 198 221 198 153 c 0
 198 58 138 -4 78 -4 c 3
 28 -4 1 20 1 46 c 0
92 136 m 0
 124 136 146 161 146 201 c 3
 146 240 127 263 96 263 c 0
 61 263 46 234 46 201 c 0
 46 160 61 136 92 136 c 0
EndSplineSet
Validated: 1048577
Substitution2: "L substitution-1" nine.L
EndChar

StartChar: bracketleft
Encoding: 91 91 10
Width: 0
VWidth: 1145
Flags: HMW
AnchorPoint: "chain" 350 0 mark 0
AnchorPoint: "chain" 350 0 basemark 0
LayerCount: 4
Back
SplineSet
24 -56 m 5xe4
 0 -56 l 5
 0 348 l 5
 24 348 l 5
 24 -56 l 5xe4
0 -56 m 1xe4
 0 -32 l 1
 110 -32 l 1
 110 -56 l 1
 0 -56 l 1xe4
0 324 m 1xe4
 0 348 l 1
 110 348 l 1
 110 324 l 1
 0 324 l 1xe4
EndSplineSet
Fore
SplineSet
24 -2 m 1
 80 -2 l 1
 80 -26 l 1
 0 -26 l 1
 0 298 l 1
 80 298 l 1
 80 274 l 1
 24 274 l 1
 24 -2 l 1
EndSplineSet
Validated: 1048577
EndChar

StartChar: b
Encoding: 98 98 12
Width: 0
VWidth: 0
Flags: HMW
AnchorPoint: "chain" -50 365 basemark 0
AnchorPoint: "chain" -50 365 mark 0
LayerCount: 4
Back
SplineSet
22 378 m 5
 22 143 l 5
 37 160 55 184 88 184 c 4
 118 184 148 166 148 124 c 4
 148 42 64 35 10 -23 c 5
 0 -23 l 5
 0 378 l 5
 22 378 l 5
22 13 m 5
 59 45 98 68 98 107 c 4
 98 136 84 149 66 149 c 4
 43 149 23 115 23 115 c 5
 22 13 l 5
EndSplineSet
Fore
SplineSet
22 378 m 1
 22 153 l 1
 36 167 53 184 83 184 c 0
 115 184 148 165 148 123 c 0
 148 41 64 42 10 -23 c 1
 0 -23 l 1
 0 378 l 1
 22 378 l 1
22 13 m 1
 59 48 98 65 98 110 c 0
 98 139 81 150 63 150 c 0
 40 150 23 131 23 131 c 1
 22 13 l 1
EndSplineSet
Validated: 1048577
Substitution2: "S substitution-1" b.S
Substitution2: "L substitution-1" b.L
Substitution2: "accidental.B substitution-1" b.B
Substitution2: "accidental.A substitiution-1" b.A
EndChar

StartChar: n
Encoding: 110 110 13
Width: 0
VWidth: 0
Flags: HMW
AnchorPoint: "chain" -50 365 mark 0
AnchorPoint: "chain" -50 365 basemark 0
LayerCount: 4
Fore
SplineSet
0 362 m 1
 20 362 l 1
 20 226 l 1
 128 252 l 1
 128 -108 l 1
 106 -108 l 1
 108 25 l 1
 0 1 l 1
 0 362 l 1
20 162 m 1
 20 71 l 1
 108 92 l 1
 108 182 l 1
 20 162 l 1
EndSplineSet
Validated: 1048577
Substitution2: "S substitution-1" n.S
Substitution2: "L substitution-1" n.L
Substitution2: "accidental.B substitution-1" n.B
Substitution2: "accidental.A substitiution-1" n.A
EndChar

StartChar: x
Encoding: 120 120 14
Width: 0
VWidth: 0
Flags: HMW
AnchorPoint: "chain" -40 365 mark 0
AnchorPoint: "chain" -40 365 basemark 0
LayerCount: 4
Back
SplineSet
88 69 m 4
 69 69 49 38 49 4 c 5
 0 1 l 5
 3 50 l 5
 37 50 66 71 66 90 c 4
 66 109 37 129 3 129 c 5
 0 178 l 5
 49 176 l 5
 49 142 69 113 88 113 c 4
 107 113 127 142 127 176 c 5
 176 178 l 5
 173 129 l 5
 139 129 110 109 110 90 c 4
 110 71 139 50 173 50 c 5
 176 1 l 5
 127 4 l 5
 127 38 107 69 88 69 c 4
EndSplineSet
Fore
SplineSet
88 69 m 0
 69 69 51 39 51 4 c 1
 0 1 l 1
 3 52 l 1
 38 52 66 71 66 90 c 0
 66 109 38 127 3 127 c 1
 0 178 l 1
 51 176 l 1
 51 141 69 113 88 113 c 0
 107 113 125 141 125 176 c 1
 176 178 l 1
 173 127 l 1
 138 127 110 109 110 90 c 0
 110 71 138 52 173 52 c 1
 176 1 l 1
 125 4 l 1
 125 39 107 69 88 69 c 0
EndSplineSet
Validated: 1048577
Substitution2: "S substitution-1" x.S
Substitution2: "L substitution-1" x.L
Substitution2: "accidental.B substitution-1" x.B
Substitution2: "accidental.A substitiution-1" x.A
EndChar

StartChar: quotedbl
Encoding: 34 34 15
Width: 1000
VWidth: 0
LayerCount: 4
Back
SplineSet
88 198 m 0x78
 88 180 77 168 60 168 c 0
 42 168 26 183 26 207 c 0
 26 244 64 285 124 285 c 0
 174 285 217 255 217 209 c 0
 217 161 176 143 141 121 c 0
 119 107 99 91 82 71 c 0
 75 64 79 52 88 52 c 0x78
 109 51 133 43 158 43 c 0
 180 43 194 59 196 84 c 1
 214 84 l 1
 221 52 213 -4 155 -4 c 0xb4
 115 -4 100 21 72 21 c 0
 58 21 47 12 43 0 c 1
 25 0 l 1
 28 42 66 95 98 119 c 0
 146 156 165 181 165 211 c 0
 165 248 139 266 109 266 c 0
 92 266 76 258 64 247 c 0
 60 242 59 239 59 236 c 0
 59 226 88 230 88 198 c 0x78
EndSplineSet
Fore
Validated: 1
EndChar

StartChar: percent
Encoding: 37 37 16
Width: 1000
VWidth: 0
LayerCount: 4
Back
SplineSet
94 15 m 7xf4
 124 15 149 33 149 86 c 4
 149 125 129 146 103 146 c 4
 83 146 64 136 52 117 c 5
 40 122 l 13
 40 281 l 5
 206 281 l 5
 193 237 114 225 60 234 c 13
 60 151 l 21xec
 75 159 90 166 117 166 c 4
 160 166 204 141 204 86 c 4
 204 31 157 -4 106 -4 c 7
 58 -4 25 17 25 50 c 4
 25 67 38 81 55 81 c 4
 72 81 84 67 84 50 c 4
 84 39 73 32 73 23 c 4
 73 19 78 15 94 15 c 7xf4
EndSplineSet
Fore
Validated: 1
EndChar

StartChar: numbersign
Encoding: 35 35 17
Width: 0
VWidth: 0
Flags: HMW
AnchorPoint: "chain" -33 365 mark 0
AnchorPoint: "chain" -33 365 basemark 0
LayerCount: 4
Back
SplineSet
33 324 m 5
 53 324 l 5
 53 226 l 5
 111 244 l 5
 111 344 l 5
 131 344 l 5
 131 252 l 5
 160 262 l 5
 160 205 l 5
 131 195 l 5
 131 106 l 5
 160 116 l 5
 160 60 l 5
 131 49 l 5
 131 -53 l 5
 111 -53 l 5
 111 42 l 5
 53 24 l 5
 53 -75 l 5
 33 -75 l 5
 33 17 l 5
 4 7 l 5
 4 63 l 5
 33 73 l 5
 33 162 l 5
 4 152 l 5
 4 209 l 5
 33 218 l 5
 33 324 l 5
111 188 m 5
 53 170 l 5
 53 80 l 5
 111 98 l 5
 111 188 l 5
EndSplineSet
Fore
SplineSet
31 333 m 5
 51 333 l 5
 51 231 l 5
 113 249 l 5
 113 354 l 5
 133 354 l 5
 133 258 l 5
 164 268 l 5
 164 209 l 5
 133 198 l 5
 133 105 l 5
 164 115 l 5
 164 56 l 5
 133 45 l 5
 133 -62 l 5
 113 -62 l 5
 113 37 l 5
 51 18 l 5
 51 -85 l 5
 31 -85 l 5
 31 11 l 5
 0 1 l 5
 0 59 l 5
 31 70 l 5
 31 163 l 5
 0 153 l 5
 0 213 l 5
 31 222 l 5
 31 333 l 5
113 191 m 5
 51 172 l 5
 51 77 l 5
 113 96 l 5
 113 191 l 5
EndSplineSet
Validated: 1048577
Substitution2: "S substitution-1" numbersign.S
Substitution2: "L substitution-1" numbersign.L
Substitution2: "accidental.B substitution-1" numbersign.B
Substitution2: "accidental.A substitiution-1" numbersign.A
EndChar

StartChar: hyphen
Encoding: 45 45 18
Width: 0
VWidth: 1000
Flags: HMW
AnchorPoint: "chain" 240 365 basemark 0
AnchorPoint: "chain" 240 0 mark 0
LayerCount: 4
Fore
SplineSet
0 123 m 1
 0 151 l 1
 250 151 l 1
 250 123 l 1
 0 123 l 1
EndSplineSet
Validated: 1048577
Substitution2: "L substitution-1" hyphen.L
EndChar

StartChar: uni001A
Encoding: 26 26 19
Width: 0
VWidth: 1000
LayerCount: 4
Back
SplineSet
0 208 m 4
 0 216 1 216 16 216 c 4
 29 216 30 216 30 208 c 4
 30 121 l 4
 30 92 36 91 58 97 c 4
 117 114 l 4
 136 119 141 118 141 103 c 4
 141 -207 l 4
 141 -215 139 -216 125 -216 c 4
 110 -216 111 -215 111 -206 c 4
 111 -120 l 4
 111 -92 107 -91 83 -97 c 4
 25 -114 l 4
 3 -120 0 -119 0 -103 c 4
 0 208 l 4
113 29 m 4
 113 54 105 54 86 48 c 4
 51 37 l 4
 29 31 28 27 28 -2 c 4
 28 -29 l 4
 28 -53 35 -53 54 -47 c 4
 90 -37 l 4
 111 -31 113 -25 113 3 c 4
 113 29 l 4
EndSplineSet
Fore
Validated: 1
EndChar

StartChar: parenleft
Encoding: 40 40 20
Width: 0
VWidth: 1140
Flags: HMW
AnchorPoint: "chain" 370 0 mark 0
AnchorPoint: "chain" 370 0 basemark 0
LayerCount: 4
Back
SplineSet
31 130 m 4
 31 50 64 -15 105 -57 c 5
 92 -70 l 5
 35 -24 0 53 0 130 c 4
 0 207 35 284 92 330 c 5
 105 317 l 5
 68 279 31 210 31 130 c 4
EndSplineSet
Fore
SplineSet
28 130 m 0
 28 62 54 8 89 -28 c 1
 78 -40 l 1
 30 -1 0 65 0 130 c 0
 0 195 30 261 78 300 c 1
 89 288 l 1
 58 256 28 198 28 130 c 0
EndSplineSet
Validated: 1048577
EndChar

StartChar: asciicircum
Encoding: 94 94 22
Width: 1000
VWidth: 0
LayerCount: 4
Back
SplineSet
92 150 m 0xf8
 101 157 118 165 137 165 c 0xf8
 187 165 212 132 212 88 c 0xf4
 212 36 176 -4 120 -4 c 0
 51 -4 25 61 25 131 c 0
 25 228 76 285 137 285 c 0
 167 285 199 267 199 238 c 0
 199 220 184 205 167 205 c 0
 150 205 137 218 137 235 c 0
 137 250 142 252 142 259 c 0
 142 265 138 267 134 267 c 0
 104 267 77 217 75 156 c 0
 75 149 83 142 92 150 c 0xf8
129 146 m 0
 99 146 78 115 78 78 c 3
 78 46 93 14 120 14 c 0
 152 14 163 39 163 87 c 0xf4
 163 119 161 146 129 146 c 0
EndSplineSet
Fore
Validated: 1
EndChar

StartChar: uni001D
Encoding: 29 29 23
Width: 0
VWidth: 0
LayerCount: 4
Back
SplineSet
46 339 m 5
 46 297 43 195 43 148 c 4
 43 145 43 142 46 142 c 4
 50 142 73 169 101 169 c 4
 127 169 154 153 154 115 c 4
 154 99 148 79 144 73 c 4
 141 68 136 61 126 51 c 4
 115 40 83 24 64 10 c 4
 50 -1 31 -19 23 -19 c 4
 21 -19 20 -18 20 -14 c 4
 20 104 20 230 19 340 c 5
 19 340 24 342 32 342 c 4
 48 342 46 339 46 339 c 5
41 15 m 5
 69 41 103 56 103 105 c 4
 103 125 91 139 76 139 c 4
 57 139 43 109 43 109 c 5
 43 109 41 89 41 72 c 6
 41 15 l 5
EndSplineSet
Fore
Validated: 1
EndChar

StartChar: uni001E
Encoding: 30 30 24
Width: 0
VWidth: 0
LayerCount: 4
Back
SplineSet
55 271 m 5
 55 271 60 271 65 271 c 4
 71 271 76 270 76 270 c 5
 76 259 76 207 76 196 c 4
 76 186 75 180 82 180 c 4
 86 180 100 184 105 186 c 4
 113 189 128 190 128 204 c 4
 128 226 126 267 126 289 c 5
 126 289 130 291 135 291 c 4
 142 291 148 289 148 289 c 5
 148 286 147 267 147 256 c 4
 147 207 148 203 156 203 c 4
 164 203 168 207 169 207 c 4
 170 207 175 206 175 204 c 6
 175 156 l 6
 175 152 173 151 161 147 c 4
 152 145 147 142 147 138 c 6
 147 60 l 6
 147 56 150 51 155 51 c 4
 163 51 168 55 172 55 c 4
 174 55 175 55 175 52 c 6
 175 1 l 6
 175 -1 153 -6 147 -11 c 5
 148 -107 l 5
 148 -107 146 -109 138 -109 c 4
 130 -109 127 -107 127 -107 c 5
 127 -107 128 -53 128 -27 c 6
 128 -21 l 5
 128 -21 126 -18 120 -18 c 4
 113 -18 75 -32 75 -32 c 5
 75 -75 l 6
 75 -103 76 -126 76 -126 c 5
 76 -126 76 -128 68 -128 c 4
 62 -128 55 -127 55 -127 c 5
 55 -127 56 -95 56 -75 c 4
 56 -43 55 -42 49 -42 c 4
 42 -42 36 -45 34 -45 c 4
 32 -45 29 -41 29 -39 c 6
 29 9 l 6
 29 13 56 15 56 24 c 6
 56 94 l 6
 56 108 50 110 47 110 c 4
 43 110 36 107 35 107 c 4
 33 107 29 110 29 112 c 6
 29 157 l 6
 29 161 36 164 45 167 c 4
 53 169 56 171 56 201 c 4
 56 220 55 257 55 271 c 5
75 46 m 4
 75 38 77 30 85 30 c 4
 106 30 128 43 128 48 c 6
 128 127 l 6
 128 130 119 131 115 131 c 4
 103 131 77 120 76 113 c 4
 75 107 75 65 75 46 c 4
EndSplineSet
Fore
Validated: 1
EndChar

StartChar: slash
Encoding: 47 47 25
Width: 0
VWidth: 1145
Flags: HMW
LayerCount: 4
Fore
SplineSet
16 -68 m 1
 -7 -62 l 1
 112 324 l 1
 135 318 l 1
 16 -68 l 1
EndSplineSet
Validated: 1
EndChar

StartChar: plus
Encoding: 43 43 26
Width: 0
VWidth: 0
Flags: HMW
AnchorPoint: "chain" 0 365 basemark 0
AnchorPoint: "chain" 0 365 mark 0
LayerCount: 4
Back
SplineSet
-20 115 m 5xe4
 -20 139 l 5
 200 139 l 5
 200 115 l 5
 -20 115 l 5xe4
78 237 m 5xe4
 102 237 l 5
 102 17 l 5
 78 17 l 5
 78 237 l 5xe4
EndSplineSet
Fore
SplineSet
108 237 m 1
 132 237 l 1
 132 139 l 1
 230 139 l 1
 230 115 l 1
 132 115 l 1
 132 17 l 1
 108 17 l 1
 108 115 l 1
 10 115 l 1
 10 139 l 5
 108 139 l 1
 108 237 l 1
EndSplineSet
Validated: 1048577
Substitution2: "L substitution-1" plus.L
EndChar

StartChar: two_slash
Encoding: 57344 57344 27
Width: 0
VWidth: 0
Flags: HMW
AnchorPoint: "chain" 227 365 basemark 0
AnchorPoint: "chain" 227 0 mark 0
LayerCount: 4
Fore
SplineSet
308 -35 m 1
 285 -35 l 1
 285 59 l 1
 205 59 l 1
 200 24 182 -4 148 -4 c 0
 112 -4 84 28 54 28 c 0
 35 28 27 18 20 0 c 1
 0 0 l 1
 4 42 46 95 82 118 c 0
 134 154 149 179 149 209 c 0
 149 246 130 263 102 263 c 0
 74 263 57 250 57 236 c 0
 57 224 72 220 72 198 c 0
 72 183 61 171 43 171 c 0
 23 171 10 185 10 207 c 0
 10 240 46 285 108 285 c 0
 162 285 206 253 206 207 c 0
 206 159 166 140 128 119 c 0
 118 113 76 90 53 55 c 1
 98 55 107 45 144 45 c 0
 169 45 181 57 188 82 c 1
 285 82 l 1
 285 175 l 1
 308 175 l 1
 308 82 l 1
 398 82 l 1
 398 59 l 1
 308 59 l 1
 308 -35 l 1
EndSplineSet
Validated: 1048577
Layer: 2
SplineSet
206 79 m 5
 206 36 188 -4 148 -4 c 4
 112 -4 84 28 54 28 c 4
 35 28 27 18 20 0 c 5
 0 0 l 5
 4 42 46 95 82 118 c 4
 134 154 149 179 149 209 c 4
 149 246 130 263 102 263 c 4
 74 263 57 250 57 236 c 4
 57 224 72 220 72 198 c 4
 72 183 61 171 43 171 c 4
 23 171 10 185 10 207 c 4
 10 240 46 285 108 285 c 4
 162 285 206 253 206 207 c 4
 206 159 166 140 128 119 c 4
 118 113 76 90 53 55 c 5
 98 55 107 45 144 45 c 4
 169 45 181 57 188 82 c 5
 206 79 l 5
398 82 m 5xe4
 398 59 l 5
 188 59 l 5
 188 82 l 5
 398 82 l 5xe4
308 -35 m 5xe4
 285 -35 l 5
 285 175 l 5
 308 175 l 5
 308 -35 l 5xe4
EndSplineSet
Substitution2: "L substitution-1" two_slash.L
LCarets2: 1 0
Ligature2: "BaseLigatures-1" two slash
Ligature2: "BaseLigatures-1" two plus
EndChar

StartChar: four_slash
Encoding: 57345 57345 28
Width: 0
VWidth: 0
Flags: HMW
AnchorPoint: "chain" 234 365 basemark 0
AnchorPoint: "chain" 234 0 mark 0
LayerCount: 4
Fore
SplineSet
174 83 m 1
 174 48 l 2
 174 29 194 20 208 20 c 1
 208 0 l 1
 82 0 l 1
 82 20 l 1
 92 20 l 2
 106 20 128 27 128 48 c 2
 128 83 l 1
 -3 83 l 1
 -3 103 l 1
 32 161 50 215 67 281 c 1
 138 281 l 1
 106 216 78 182 27 106 c 1
 128 106 l 1
 128 162 l 1
 174 211 l 1
 174 106 l 1
 276 106 l 1
 276 203 l 1
 299 203 l 1
 299 106 l 1
 385 106 l 1
 385 83 l 1
 299 83 l 1
 299 -7 l 1
 276 -7 l 1
 276 83 l 1
 174 83 l 1
EndSplineSet
Validated: 1048577
Layer: 2
SplineSet
299 -7 m 5xe4
 276 -7 l 5
 276 203 l 5
 299 203 l 5
 299 -7 l 5xe4
174 83 m 5
 174 48 l 6
 174 29 194 20 208 20 c 5
 208 0 l 5
 82 0 l 5
 82 20 l 5
 92 20 l 6
 106 20 128 27 128 48 c 6
 128 83 l 5
 -3 83 l 5
 -3 103 l 5
 32 161 50 215 67 281 c 5
 138 281 l 5
 106 216 78 182 27 106 c 5
 128 106 l 5
 128 162 l 5
 174 211 l 5
 174 106 l 5
 385 106 l 5
 385 83 l 5
 174 83 l 5
EndSplineSet
Substitution2: "L substitution-1" four_slash.L
LCarets2: 1 0
Ligature2: "BaseLigatures-1" four slash
Ligature2: "BaseLigatures-1" four plus
EndChar

StartChar: five_slash
Encoding: 57346 57346 29
Width: 0
VWidth: 0
Flags: HMW
AnchorPoint: "chain" 225 365 basemark 0
AnchorPoint: "chain" 225 0 mark 0
LayerCount: 4
Fore
SplineSet
147 93 m 0
 146 138 125 155 89 156 c 0
 66 156 48 149 34 136 c 1
 21 143 l 1
 23 281 l 1
 52 278 75 276 99 276 c 0
 122 276 135 277 163 279 c 1
 240 279 l 1
 240 372 l 1
 263 372 l 1
 263 279 l 1
 353 279 l 1
 353 256 l 1
 263 256 l 1
 263 162 l 1
 240 162 l 1
 240 256 l 1
 165 256 l 1
 149 238 127 227 92 227 c 0
 76 227 62 229 44 231 c 1
 43 168 l 1
 58 174 69 180 98 180 c 0
 149 180 199 150 200 92 c 0
 200 34 154 -4 95 -4 c 0
 37 -4 -1 35 -1 66 c 0
 -1 89 13 102 33 102 c 0
 53 102 64 88 64 69 c 0
 64 48 54 49 54 37 c 0
 54 29 63 18 87 18 c 0
 123 18 147 43 147 93 c 0
EndSplineSet
Validated: 1048577
Layer: 2
SplineSet
147 93 m 0
 146 138 125 155 89 156 c 0
 66 156 48 149 34 136 c 1
 21 143 l 9
 23 281 l 1
 52 278 75 276 99 276 c 0
 122 276 135 277 163 279 c 1
 178 274 l 1
 161 246 138 227 92 227 c 3
 76 227 62 229 44 231 c 9
 43 168 l 17
 58 174 69 180 98 180 c 0
 149 180 199 150 200 92 c 0
 200 34 154 -4 95 -4 c 0
 37 -4 -1 35 -1 66 c 0
 -1 89 13 102 33 102 c 0
 53 102 64 88 64 69 c 0
 64 48 54 49 54 37 c 0
 54 29 63 18 87 18 c 0
 123 18 147 43 147 93 c 0
353 279 m 1xe4
 353 256 l 1
 143 256 l 1
 163 279 l 1
 353 279 l 1xe4
263 162 m 1xe4
 240 162 l 1
 240 372 l 1
 263 372 l 1
 263 162 l 1xe4
EndSplineSet
Substitution2: "L substitution-1" five_slash.L
LCarets2: 1 0
Ligature2: "BaseLigatures-1" five plus
Ligature2: "BaseLigatures-1" five slash
EndChar

StartChar: six_slash
Encoding: 57347 57347 30
Width: 0
VWidth: 0
Flags: HMW
AnchorPoint: "chain" 232 365 basemark 0
AnchorPoint: "chain" 232 0 mark 0
LayerCount: 4
Fore
SplineSet
117 135 m 0
 83 135 61 106 61 73 c 0
 61 41 78 18 109 18 c 0
 145 18 161 48 161 80 c 0
 161 112 148 135 117 135 c 0
56 128 m 1
 70 145 98 158 126 158 c 0
 181 158 212 121 212 81 c 0
 212 35 170 -4 115 -4 c 0
 40 -4 9 66 9 128 c 0
 9 183 32 223 68 250 c 1
 -13 310 l 1
 0 329 l 1
 88 263 l 1
 116 278 149 285 182 285 c 1
 184 264 l 1
 156 262 131 257 111 246 c 1
 178 196 l 1
 165 177 l 1
 91 232 l 1
 69 211 56 179 56 128 c 1
EndSplineSet
Validated: 1048577
Layer: 2
SplineSet
-13 310 m 5
 0 329 l 5
 178 196 l 5
 165 177 l 5
 -13 310 l 5
56 128 m 5
 70 145 98 158 126 158 c 4
 181 158 212 121 212 81 c 4
 212 35 170 -4 115 -4 c 4
 40 -4 9 66 9 128 c 4
 9 231 92 285 182 285 c 5
 184 264 l 5
 108 259 56 230 56 128 c 5
117 135 m 4
 83 135 61 106 61 73 c 7
 61 41 78 18 109 18 c 4
 145 18 161 48 161 80 c 4
 161 112 148 135 117 135 c 4
EndSplineSet
Substitution2: "L substitution-1" six_slash.L
LCarets2: 1 0
Ligature2: "BaseLigatures-1" six plus
Ligature2: "BaseLigatures-1" six slash
EndChar

StartChar: seven_slash
Encoding: 57348 57348 31
Width: 0
VWidth: 0
Flags: HMW
AnchorPoint: "chain" 217 365 basemark 0
AnchorPoint: "chain" 217 0 mark 0
LayerCount: 4
Fore
SplineSet
24 281 m 1
 24 269 24 263 31 263 c 0
 40 263 51 285 80 285 c 0
 93 285 102 281 109 276 c 1
 158 354 l 1
 179 343 l 1
 128 263 l 1
 133 260 138 258 144 258 c 0
 158 258 168 268 172 281 c 1
 194 281 l 1
 174 188 118 125 111 35 c 0
 109 8 94 -3 79 -3 c 0
 64 -3 51 9 51 30 c 0
 51 85 106 139 155 223 c 1
 144 224 127 229 110 233 c 1
 44 129 l 1
 24 140 l 1
 86 238 l 1
 75 241 66 242 60 242 c 0
 45 242 23 234 17 180 c 1
 -2 180 l 1
 4 281 l 1
 24 281 l 1
EndSplineSet
Validated: 1048577
Layer: 2
SplineSet
44 129 m 5
 24 140 l 5
 158 354 l 5
 179 343 l 5
 44 129 l 5
24 281 m 5
 24 269 24 263 31 263 c 7
 40 263 51 285 80 285 c 4
 115 285 120 258 144 258 c 4
 158 258 168 268 172 281 c 5
 194 281 l 5
 174 188 118 125 111 35 c 4
 109 8 94 -3 79 -3 c 4
 64 -3 51 9 51 30 c 4
 51 85 106 139 155 223 c 5
 133 226 81 242 60 242 c 7
 45 242 23 234 17 180 c 5
 -2 180 l 5
 4 281 l 5
 24 281 l 5
EndSplineSet
Substitution2: "L substitution-1" seven_slash.L
LCarets2: 1 0
Ligature2: "BaseLigatures-1" seven slash
Ligature2: "BaseLigatures-1" seven plus
EndChar

StartChar: nine_slash
Encoding: 57349 57349 32
Width: 0
VWidth: 0
Flags: HMW
AnchorPoint: "chain" 216 365 basemark 0
AnchorPoint: "chain" 216 0 mark 0
LayerCount: 4
Fore
SplineSet
89 146 m 0
 121 146 146 174 146 209 c 0
 146 238 129 263 98 263 c 0
 63 263 46 234 46 206 c 0
 46 170 58 146 89 146 c 0
150 150 m 1
 136 136 111 123 83 123 c 0
 25 123 -5 161 -5 205 c 0
 -5 245 37 285 92 285 c 0
 163 285 198 231 198 171 c 0
 198 116 174 68 133 36 c 1
 210 -8 l 1
 199 -27 l 1
 113 23 l 1
 84 6 48 -4 8 -4 c 1
 7 17 l 1
 40 18 66 26 87 37 c 1
 5 85 l 1
 16 104 l 1
 107 51 l 1
 137 76 150 112 150 150 c 1
EndSplineSet
Validated: 1048577
Layer: 2
SplineSet
5 85 m 5
 16 104 l 5
 210 -8 l 5
 199 -27 l 5
 5 85 l 5
150 150 m 5
 136 136 111 123 83 123 c 4
 25 123 -5 161 -5 205 c 4
 -5 245 37 285 92 285 c 4
 163 285 198 231 198 171 c 4
 198 71 119 -4 8 -4 c 5
 7 17 l 5
 107 21 150 82 150 150 c 5
89 146 m 4
 121 146 146 174 146 209 c 7
 146 238 129 263 98 263 c 4
 63 263 46 234 46 206 c 4
 46 170 58 146 89 146 c 4
EndSplineSet
Substitution2: "L substitution-1" nine_slash.L
LCarets2: 1 0
Ligature2: "BaseLigatures-1" nine slash
Ligature2: "BaseLigatures-1" nine plus
EndChar

StartChar: b_b
Encoding: 57350 57350 33
Width: 0
VWidth: 0
Flags: HMW
AnchorPoint: "chain" -100 365 mark 0
AnchorPoint: "chain" -100 365 basemark 0
LayerCount: 4
Back
SplineSet
137 358 m 5
 137 143 l 5
 149 156 168 177 196 177 c 4
 223 177 249 160 249 120 c 4
 249 42 179 35 125 -23 c 5
 115 -23 l 5
 115 358 l 5
 137 358 l 5
137 13 m 5
 170 44 205 64 205 104 c 4
 205 132 193 145 177 145 c 4
 154 145 138 115 138 115 c 5
 137 13 l 5
22 358 m 5
 22 143 l 5
 34 156 51 177 78 177 c 4
 104 177 128 160 128 120 c 4
 128 42 64 35 10 -23 c 5
 0 -23 l 5
 0 358 l 5
 22 358 l 5
22 13 m 5
 55 44 90 64 90 104 c 4
 90 132 78 145 62 145 c 4
 39 145 23 115 23 115 c 5
 22 13 l 5
EndSplineSet
Fore
SplineSet
22 13 m 1
 55 44 90 64 90 104 c 0
 90 132 78 145 62 145 c 0
 39 145 23 115 23 115 c 1
 22 13 l 1
22 378 m 1
 22 143 l 1
 34 156 51 177 78 177 c 0
 92 177 106 172 115 161 c 1
 115 378 l 1
 137 378 l 1
 137 143 l 1
 149 156 168 177 196 177 c 0
 223 177 249 160 249 120 c 0
 249 42 179 35 125 -23 c 1
 115 -23 l 1
 115 69 l 1
 94 34 49 19 10 -23 c 1
 0 -23 l 1
 0 378 l 1
 22 378 l 1
137 13 m 1
 170 44 205 64 205 104 c 0
 205 132 193 145 177 145 c 0
 154 145 138 115 138 115 c 1
 137 13 l 1
EndSplineSet
Validated: 1048577
Layer: 2
SplineSet
137 328 m 5
 137 143 l 5
 149 156 168 177 196 177 c 4
 223 177 249 160 249 120 c 4
 249 42 179 35 125 -23 c 5
 115 -23 l 5
 115 328 l 5
 137 328 l 5
137 13 m 5
 170 44 208 66 208 106 c 4
 208 134 196 147 180 147 c 4
 157 147 138 115 138 115 c 5
 137 13 l 5
22 328 m 5
 22 143 l 5
 34 156 51 177 78 177 c 4
 104 177 128 160 128 120 c 4
 128 42 64 35 10 -23 c 5
 0 -23 l 5
 0 328 l 5
 22 328 l 5
22 13 m 5
 55 44 93 66 93 106 c 4
 93 134 81 147 65 147 c 4
 42 147 23 115 23 115 c 5
 22 13 l 5
EndSplineSet
Substitution2: "S substitution-1" b_b.S
Substitution2: "L substitution-1" b_b.L
Substitution2: "accidental.B substitution-1" b_b.B
Substitution2: "accidental.A substitiution-1" b_b.A
Ligature2: "BaseLigatures-1" b b
LCarets2: 1 0
EndChar

StartChar: Q
Encoding: 81 81 42
Width: 0
VWidth: 1145
Flags: W
HStem: -46 24<24 80> 659 24<24 80>
VStem: 0 80<-46 -22 659 683> 0 24<-22 659>
AnchorPoint: "chain" 350 0 mark 0
AnchorPoint: "chain" 350 0 basemark 0
LayerCount: 4
Fore
SplineSet
24 -22 m 1xd0
 80 -22 l 1
 80 -46 l 1
 0 -46 l 1
 0 683 l 1
 80 683 l 1
 80 659 l 1xe0
 24 659 l 1
 24 -22 l 1xd0
EndSplineSet
Validated: 1048577
EndChar

StartChar: parenleft_s_parenright
Encoding: 57357 57357 43
Width: 0
VWidth: 1140
Flags: W
VStem: 0 27<68.8464 200.639> 365 27<69.3615 201.154>
AnchorPoint: "chain" -40 365 basemark 0
AnchorPoint: "chain" -40 365 mark 0
LayerCount: 4
Fore
SplineSet
365 135 m 0
 365 193 342 238 310 269 c 1
 320 279 l 1
 364 246 392 190 392 135 c 0
 392 80 364 24 320 -9 c 1
 310 1 l 1
 339 28 365 77 365 135 c 0
27 135 m 0
 27 77 50 32 82 1 c 1
 72 -9 l 1
 28 24 0 80 0 135 c 0
 0 190 28 246 72 279 c 1
 82 269 l 1
 53 242 27 193 27 135 c 0
EndSplineSet
Refer: 17 35 S 1 0 0 1 113 0 2
Validated: 1048577
LCarets2: 2 0 0
Ligature2: "BaseLigatures-1" parenleft numbersign parenright
Ligature2: "BaseLigatures-1" parenleft s parenright
EndChar

StartChar: parenleft_b_parenright
Encoding: 57358 57358 44
Width: 0
VWidth: 1140
Flags: W
VStem: 0 27<63.8464 195.639> 335 27<64.3615 196.154>
AnchorPoint: "chain" -40 365 basemark 0
AnchorPoint: "chain" -40 365 mark 0
LayerCount: 4
Fore
SplineSet
335 130 m 0
 335 188 312 233 280 264 c 1
 290 274 l 1
 334 241 362 185 362 130 c 0
 362 75 334 19 290 -14 c 1
 280 -4 l 1
 309 23 335 72 335 130 c 0
27 130 m 0
 27 72 50 27 82 -4 c 1
 72 -14 l 1
 28 19 0 75 0 130 c 0
 0 185 28 241 72 274 c 1
 82 264 l 1
 53 237 27 188 27 130 c 0
EndSplineSet
Refer: 12 98 S 1 0 0 1 125 0 2
Validated: 1048577
LCarets2: 2 0 0
Ligature2: "BaseLigatures-1" parenleft b parenright
EndChar

StartChar: parenleft_n_parenright
Encoding: 57359 57359 45
Width: 0
VWidth: 1140
Flags: W
VStem: 0 27<53.8464 185.639> 342 27<54.3615 186.154>
AnchorPoint: "chain" -40 365 basemark 0
AnchorPoint: "chain" -40 365 mark 0
LayerCount: 4
Fore
SplineSet
342 120 m 0
 342 178 319 223 287 254 c 1
 297 264 l 1
 341 231 369 175 369 120 c 0
 369 65 341 9 297 -24 c 1
 287 -14 l 1
 316 13 342 62 342 120 c 0
27 120 m 0
 27 62 50 17 82 -14 c 1
 72 -24 l 1
 28 9 0 65 0 120 c 0
 0 175 28 231 72 264 c 1
 82 254 l 1
 53 227 27 178 27 120 c 0
EndSplineSet
Refer: 13 110 N 1 0 0 1 120 0 2
Validated: 1048577
LCarets2: 2 0 0
Ligature2: "BaseLigatures-1" parenleft n parenright
EndChar

StartChar: parenleft_x_parenright
Encoding: 57360 57360 46
Width: 0
VWidth: 1140
Flags: W
HStem: -18 256
VStem: 0 25<50.6071 168.902> 357 25<51.0977 169.393>
AnchorPoint: "chain" -40 365 basemark 0
AnchorPoint: "chain" -40 365 mark 0
LayerCount: 4
Fore
SplineSet
357 110 m 0
 357 161 335 200 305 227 c 1
 316 238 l 1
 357 209 382 159 382 110 c 0
 382 61 357 11 316 -18 c 1
 305 -7 l 1
 331 17 357 59 357 110 c 0
25 110 m 0
 25 59 47 20 77 -7 c 1
 66 -18 l 1
 25 11 0 61 0 110 c 0
 0 159 25 209 66 238 c 1
 77 227 l 1
 51 203 25 161 25 110 c 0
EndSplineSet
Refer: 14 120 N 1 0 0 1 103 20 2
Validated: 1048577
LCarets2: 2 0 0
Ligature2: "BaseLigatures-1" parenleft x parenright
EndChar

StartChar: parenleft_b_b_parenright
Encoding: 57361 57361 47
Width: 0
VWidth: 1140
Flags: W
VStem: 0 27<63.8464 195.639> 435 27<64.3615 196.154>
AnchorPoint: "chain" -40 365 basemark 0
AnchorPoint: "chain" -40 365 mark 0
LayerCount: 4
Fore
SplineSet
435 130 m 0
 435 188 412 233 380 264 c 1
 390 274 l 1
 434 241 462 185 462 130 c 0
 462 75 434 19 390 -14 c 1
 380 -4 l 1
 409 23 435 72 435 130 c 0
27 130 m 0
 27 72 50 27 82 -4 c 1
 72 -14 l 1
 28 19 0 75 0 130 c 0
 0 185 28 241 72 274 c 1
 82 264 l 1
 53 237 27 188 27 130 c 0
EndSplineSet
Refer: 33 57350 S 1 0 0 1 120 0 2
Validated: 1048577
LCarets2: 3 0 0 0
Ligature2: "BaseLigatures-1" parenleft b b parenright
EndChar

StartChar: bracketleft_s_bracketright
Encoding: 57362 57362 48
Width: 0
VWidth: 1140
Flags: W
HStem: -21 24<24 70 315 361> 259 24<24 70 315 361>
VStem: 0 70<-21 3 259 283> 0 24<3 259> 315 70<-21 3 259 283> 361 24<3 259>
AnchorPoint: "chain" -40 365 basemark 0
AnchorPoint: "chain" -40 365 mark 0
LayerCount: 4
Fore
SplineSet
361 259 m 1xc4
 315 259 l 1
 315 283 l 1
 385 283 l 1
 385 -21 l 1
 315 -21 l 1
 315 3 l 1xc8
 361 3 l 1
 361 259 l 1xc4
24 3 m 1xd0
 70 3 l 1
 70 -21 l 1
 0 -21 l 1
 0 283 l 1
 70 283 l 1
 70 259 l 1xe0
 24 259 l 1
 24 3 l 1xd0
EndSplineSet
Refer: 17 35 N 1 0 0 1 111 0 2
Validated: 1048577
LCarets2: 2 0 0
Ligature2: "BaseLigatures-1" bracketleft s bracketright
Ligature2: "BaseLigatures-1" bracketleft numbersign bracketright
EndChar

StartChar: bracketleft_b_bracketright
Encoding: 57363 57363 49
Width: 0
VWidth: 1140
Flags: W
HStem: -16 24<24 70 290 336> 264 24<24 70 290 336>
VStem: 0 70<-16 8 264 288> 0 24<8 264> 290 70<-16 8 264 288> 336 24<8 264>
AnchorPoint: "chain" -40 365 basemark 0
AnchorPoint: "chain" -40 365 mark 0
LayerCount: 4
Fore
SplineSet
336 264 m 1xc4
 290 264 l 1
 290 288 l 1
 360 288 l 1
 360 -16 l 1
 290 -16 l 1
 290 8 l 1xc8
 336 8 l 1
 336 264 l 1xc4
24 8 m 1xd0
 70 8 l 1
 70 -16 l 1
 0 -16 l 1
 0 288 l 1
 70 288 l 1
 70 264 l 1xe0
 24 264 l 1
 24 8 l 1xd0
EndSplineSet
Refer: 12 98 N 1 0 0 1 120 0 2
Validated: 1048577
LCarets2: 2 0 0
Ligature2: "BaseLigatures-1" bracketleft b bracketright
EndChar

StartChar: bracketleft_n_bracketright
Encoding: 57364 57364 50
Width: 0
VWidth: 1140
Flags: W
HStem: -26 24<23 69 290 336> 254 24<23 69 290 336>
VStem: -1 70<-26 -2 254 278> -1 24<-2 254> 290 70<-26 -2 254 278> 336 24<-2 254>
AnchorPoint: "chain" -41 365 basemark 0
AnchorPoint: "chain" -41 365 mark 0
LayerCount: 4
Fore
SplineSet
336 254 m 1xc4
 290 254 l 1
 290 278 l 1
 360 278 l 1
 360 -26 l 1
 290 -26 l 1
 290 -2 l 1xc8
 336 -2 l 1
 336 254 l 1xc4
23 -2 m 1xd0
 69 -2 l 1
 69 -26 l 1
 -1 -26 l 1
 -1 278 l 1
 69 278 l 1
 69 254 l 1xe0
 23 254 l 1
 23 -2 l 1xd0
EndSplineSet
Refer: 13 110 N 1 0 0 1 115 0 2
Validated: 1048577
LCarets2: 2 0 0
Ligature2: "BaseLigatures-1" bracketleft n bracketright
EndChar

StartChar: bracketleft_x_bracketright
Encoding: 57365 57365 51
Width: 0
VWidth: 1140
Flags: W
HStem: -11 24<24 60 321 357> 189 24<24 60 321 357>
VStem: 0 60<-11 13 189 213> 0 24<13 189> 321 60<-11 13 189 213> 357 24<13 189>
AnchorPoint: "chain" -40 365 basemark 0
AnchorPoint: "chain" -40 365 mark 0
LayerCount: 4
Fore
SplineSet
357 189 m 1xc4
 321 189 l 1
 321 213 l 1
 381 213 l 1
 381 -11 l 1
 321 -11 l 1
 321 13 l 1xc8
 357 13 l 1
 357 189 l 1xc4
24 13 m 1xd0
 60 13 l 1
 60 -11 l 1
 0 -11 l 1
 0 213 l 1
 60 213 l 1
 60 189 l 1xe0
 24 189 l 1
 24 13 l 1xd0
EndSplineSet
Refer: 14 120 N 1 0 0 1 103 10 2
Validated: 1048577
LCarets2: 2 0 0
Ligature2: "BaseLigatures-1" bracketleft x bracketright
EndChar

StartChar: bracketleft_b_b_bracketright
Encoding: 57366 57366 52
Width: 0
VWidth: 1140
Flags: W
HStem: -16 24<24 70 385 431> 264 24<24 70 385 431>
VStem: 0 70<-16 8 264 288> 0 24<8 264> 385 70<-16 8 264 288> 431 24<8 264>
AnchorPoint: "chain" -40 365 basemark 0
AnchorPoint: "chain" -40 365 mark 0
LayerCount: 4
Fore
SplineSet
431 264 m 1xc4
 385 264 l 1
 385 288 l 1
 455 288 l 1
 455 -16 l 1
 385 -16 l 1
 385 8 l 1xc8
 431 8 l 1
 431 264 l 1xc4
24 8 m 1xd0
 70 8 l 1
 70 -16 l 1
 0 -16 l 1
 0 288 l 1
 70 288 l 1
 70 264 l 1xe0
 24 264 l 1
 24 8 l 1xd0
EndSplineSet
Refer: 33 57350 N 1 0 0 1 115 0 2
Validated: 1048577
LCarets2: 3 0 0 0
Ligature2: "BaseLigatures-1" bracketleft b b bracketright
EndChar

StartChar: b.nolig
Encoding: 57370 57370 107
Width: 0
VWidth: 0
Flags: W
HStem: 150 34<37.1412 92.3109>
VStem: 0 22<13 131 153 378> 98 50<65.9148 147.565>
AnchorPoint: "chain" -50 365 basemark 0
AnchorPoint: "chain" -50 365 mark 0
LayerCount: 4
Fore
SplineSet
22 378 m 1
 22 153 l 1
 36 167 53 184 83 184 c 0
 115 184 148 165 148 123 c 0
 148 41 64 42 10 -23 c 1
 0 -23 l 1
 0 378 l 1
 22 378 l 1
22 13 m 1
 59 48 98 65 98 110 c 0
 98 139 81 150 63 150 c 0
 40 150 23 131 23 131 c 1
 22 13 l 1
EndSplineSet
Validated: 1048577
Substitution2: "S substitution-1" b.S
Ligature2: "Nolig ligature-1" b comma
EndChar

StartChar: i_zero
Encoding: 57380 57380 108
Width: 0
VWidth: 0
Flags: MW
AnchorPoint: "chain" 227.5 365 basemark 0
AnchorPoint: "chain" 227.5 0 mark 0
LayerCount: 4
Fore
SplineSet
-7 101 m 0
 -7 200 64 286 130 286 c 0
 184 286 213 238 213 179 c 0
 213 80 142 -5 76 -5 c 0
 22 -5 -7 42 -7 101 c 0
165 212 m 0
 165 241 156 263 130 263 c 0
 97 263 68 206 56 158 c 0
 47 124 40 93 40 69 c 0
 40 39 50 17 76 17 c 0
 109 17 132 63 148 121 c 0
 156 148 165 186 165 212 c 0
EndSplineSet
Validated: 1048577
Substitution2: "L substitution-1" i_zero.L
LCarets2: 1 0
Ligature2: "'liga' italic figures-1" i zero
EndChar

StartChar: i_one
Encoding: 57381 57381 109
Width: 0
VWidth: 0
Flags: MW
AnchorPoint: "chain" 209 0 mark 0
AnchorPoint: "chain" 209 365 basemark 0
LayerCount: 4
Fore
SplineSet
103 56 m 2
 102 53 102 49 102 46 c 0
 102 28 117 21 133 21 c 2
 146 21 l 17
 144 0 l 9
 -4 0 l 17
 -2 21 l 9
 21 21 l 2
 39 21 52 32 58 57 c 2
 95 219 l 2
 95 221 96 222 96 224 c 0
 96 228 93 230 88 230 c 0
 85 230 80 229 74 227 c 2
 41 215 l 1
 35 232 l 9
 120 281 l 17
 155 281 l 9
 103 56 l 2
EndSplineSet
Validated: 1048577
LCarets2: 1 0
Substitution2: "L substitution-1" i_one.L
Ligature2: "'liga' italic figures-1" i one
EndChar

StartChar: i_two
Encoding: 57382 57382 110
Width: 0
VWidth: 0
Flags: MW
AnchorPoint: "chain" 228 365 basemark 0
AnchorPoint: "chain" 228 0 mark 0
LayerCount: 4
Fore
SplineSet
59 171 m 0
 41 171 29 188 29 207 c 0
 29 246 73 284 131 284 c 0
 182 284 221 250 221 210 c 0
 221 150 167 138 123 118 c 0
 112 112 70 91 39 57 c 1
 85 55 90 44 129 44 c 0
 153 44 170 55 175 79 c 1
 192 76 l 1
 191 35 166 -5 126 -5 c 0
 88 -5 64 30 31 30 c 0
 14 30 7 22 -2 3 c 1
 -22 4 l 1
 -8 55 42 97 77 119 c 0
 141 160 164 176 164 220 c 0
 164 246 149 262 119 262 c 0
 94 262 77 250 76 235 c 0
 76 225 91 223 91 204 c 0
 91 188 79 171 59 171 c 0
EndSplineSet
Validated: 1048577
LCarets2: 1 0
Substitution2: "L substitution-1" i_two.L
Ligature2: "'liga' italic figures-1" i two
EndChar

StartChar: i_three
Encoding: 57383 57383 111
Width: 0
VWidth: 0
Flags: MW
AnchorPoint: "chain" 225.5 0 mark 0
AnchorPoint: "chain" 225.5 365 basemark 0
LayerCount: 4
Fore
SplineSet
17 105 m 0
 35 105 44 93 44 78 c 0
 44 57 26 49 26 37 c 0
 26 25 48 18 71 18 c 0
 106 18 131 44 131 87 c 0
 131 113 116 132 69 134 c 1
 65 134 l 1
 67 155 l 1
 71 155 l 2
 129 155 161 173 161 223 c 0
 161 248 147 264 117 264 c 0
 93 264 76 254 76 244 c 0
 76 237 91 232 91 215 c 0
 91 200 83 186 63 186 c 0
 48 186 33 196 33 217 c 0
 33 251 72 284 124 284 c 0
 172 284 212 254 212 217 c 0
 212 178 181 158 150 149 c 0
 146 148 141 148 141 143 c 0
 141 141 143 141 146 139 c 0
 171 128 185 106 185 81 c 0
 185 31 137 -3 76 -3 c 0
 18 -3 -18 30 -18 62 c 0
 -18 88 1 105 17 105 c 0
EndSplineSet
Validated: 1048577
LCarets2: 1 0
Substitution2: "L substitution-1" i_three.L
Ligature2: "'liga' italic figures-1" i three
EndChar

StartChar: i_four
Encoding: 57384 57384 112
Width: 0
VWidth: 0
Flags: MW
AnchorPoint: "chain" 233.5 0 mark 0
AnchorPoint: "chain" 233.5 365 basemark 0
LayerCount: 4
Fore
SplineSet
158 83 m 1
 149 48 l 2
 148 46 148 44 148 42 c 0
 148 27 166 20 179 20 c 1
 176 0 l 1
 50 0 l 1
 53 20 l 1
 63 20 l 2
 77 20 98 27 103 48 c 2
 112 83 l 1
 -12 83 l 1
 -9 103 l 1
 40 161 76 215 109 281 c 1
 180 281 l 1
 132 216 91 182 21 106 c 1
 117 106 l 1
 131 162 l 1
 190 211 l 1
 163 106 l 1
 209 106 l 1
 206 83 l 1
 158 83 l 1
EndSplineSet
Validated: 1048577
Substitution2: "L substitution-1" i_four.L
LCarets2: 1 0
Ligature2: "'liga' italic figures-1" i four
EndChar

StartChar: i_five
Encoding: 57385 57385 113
Width: 0
VWidth: 0
Flags: MW
AnchorPoint: "chain" 224.5 0 mark 0
AnchorPoint: "chain" 224.5 365 basemark 0
LayerCount: 4
Fore
SplineSet
67 -3 m 0
 10 -3 -23 33 -23 64 c 0
 -23 90 -7 105 13 105 c 0
 33 105 43 94 43 77 c 0
 43 52 27 50 27 36 c 0
 27 28 38 19 61 19 c 0
 99 19 136 59 136 111 c 0
 136 140 118 156 88 156 c 0
 67 156 49 149 33 138 c 1
 22 146 l 9
 61 282 l 1
 98 277 125 274 162 274 c 0
 177 274 193 275 211 277 c 1
 214 270 l 1
 191 244 164 226 122 226 c 0
 102 226 88 229 68 232 c 9
 51 170 l 17
 66 175 76 180 101 180 c 0
 149 180 188 151 188 103 c 0
 188 38 124 -3 67 -3 c 0
EndSplineSet
Validated: 1048577
LCarets2: 1 0
Substitution2: "L substitution-1" i_five.L
Ligature2: "'liga' italic figures-1" i five
EndChar

StartChar: i_six
Encoding: 57386 57386 114
Width: 0
VWidth: 0
Flags: HMW
AnchorPoint: "chain" 223.5 0 mark 0
AnchorPoint: "chain" 223.5 365 basemark 0
LayerCount: 4
Fore
SplineSet
178 186 m 0
 158 186 149 200 149 215 c 0
 149 230 159 235 159 249 c 0
 159 256 152 263 135 263 c 0
 81 263 66 198 50 140 c 1
 69 158 85 168 112 168 c 0
 161 168 186 131 186 93 c 0
 186 38 136 -3 82 -3 c 0
 21 -3 -4 46 -4 103 c 0
 -4 120 -2 137 3 153 c 0
 27 245 83 284 137 284 c 0
 184 284 211 252 211 224 c 0
 211 203 196 186 178 186 c 0
81 18 m 0
 112 18 136 51 136 97 c 0
 136 124 126 145 101 145 c 0
 69 145 51 118 42 80 c 0
 41 74 40 68 40 63 c 0
 40 34 56 18 81 18 c 0
EndSplineSet
Validated: 1048577
LCarets2: 1 0
Substitution2: "L substitution-1" i_six.L
Ligature2: "'liga' italic figures-1" i six
EndChar

StartChar: i_seven
Encoding: 57387 57387 115
Width: 0
VWidth: 0
Flags: MW
AnchorPoint: "chain" 216.5 0 mark 0
AnchorPoint: "chain" 216.5 365 basemark 0
LayerCount: 4
Fore
SplineSet
166 218 m 1
 141 223 101 239 76 239 c 0
 56 239 40 231 23 177 c 1
 4 178 l 1
 31 284 l 1
 51 283 l 1
 50 277 49 273 49 270 c 0
 49 267 50 265 54 265 c 0
 63 265 78 285 106 285 c 0
 142 285 143 257 167 256 c 0
 181 256 193 265 199 278 c 1
 218 276 l 1
 180 184 109 122 85 33 c 0
 78 7 62 -4 48 -4 c 0
 33 -4 21 6 21 23 c 0
 21 25 22 27 22 30 c 0
 33 85 106 143 166 218 c 1
EndSplineSet
Validated: 1048577
Substitution2: "L substitution-1" i_seven.L
Ligature2: "'liga' italic figures-1" i seven
EndChar

StartChar: i_eight
Encoding: 57388 57388 116
Width: 0
VWidth: 1610
Flags: MW
AnchorPoint: "chain" 222.5 0 mark 0
AnchorPoint: "chain" 222.5 365 basemark 0
LayerCount: 4
Fore
SplineSet
117 262 m 0
 91 262 67 250 67 224 c 0
 67 198 97 175 124 156 c 1
 159 167 177 189 177 216 c 0
 177 243 153 262 117 262 c 0
80 16 m 0
 113 16 138 35 138 61 c 0
 138 91 99 113 74 130 c 1
 45 127 12 106 12 71 c 0
 12 46 37 16 80 16 c 0
-20 68 m 0
 -20 111 17 138 52 148 c 1
 38 160 25 178 25 203 c 0
 25 252 69 286 120 286 c 0
 174 286 207 252 207 214 c 0
 207 175 182 157 147 141 c 1
 165 125 180 106 180 80 c 0
 180 24 128 -7 82 -7 c 0
 22 -7 -20 29 -20 68 c 0
EndSplineSet
Validated: 1048577
Substitution2: "L substitution-1" i_eight.L
Ligature2: "'liga' italic figures-1" i eight
EndChar

StartChar: i_nine
Encoding: 57389 57389 117
Width: 0
VWidth: 0
Flags: MW
AnchorPoint: "chain" 223.5 0 mark 0
AnchorPoint: "chain" 223.5 365 basemark 0
LayerCount: 4
Fore
SplineSet
-19 48 m 0
 -19 68 -6 83 12 83 c 0
 31 83 42 69 42 50 c 0
 42 30 45 21 60 21 c 0
 118 21 141 105 149 136 c 1
 130 122 111 114 86 114 c 0
 35 114 5 145 5 185 c 0
 5 242 54 284 112 284 c 0
 175 284 203 233 203 178 c 0
 203 68 118 -2 52 -2 c 0
 4 -2 -19 25 -19 48 c 0
56 178 m 0
 56 151 68 136 95 136 c 0
 129 136 160 166 160 213 c 0
 160 243 142 262 114 262 c 0
 75 262 56 220 56 178 c 0
EndSplineSet
Validated: 1048577
Substitution2: "L substitution-1" i_nine.L
Ligature2: "'liga' italic figures-1" i nine
EndChar

